/* XPM */
static char *hide_pressed[] = {
/* columns rows colors chars-per-pixel */
"20 20 2 1 ",
"  c black",
". c #FFCC00",
/* pixels */
"....................",
"....................",
"....................",
"....................",
"....................",
"....................",
"....................",
"....................",
"....................",
"....................",
"....................",
"....................",
"....................",
"....................",
"....            ....",
"....            ....",
"....................",
"....................",
"....................",
"...................."
};
