/* XPM */
static char *left_inactive[] = {
/* columns rows colors chars-per-pixel */
"5 10 2 1 ",
"  c black",
". c #999999",
/* pixels */
" ... ",
" ... ",
" ... ",
" ... ",
" ... ",
" ... ",
" ... ",
" ... ",
" ... ",
" ... "
};
