/* XPM */
static char *stick_toggled_inactive[] = {
/* columns rows colors chars-per-pixel */
"22 22 2 1 ",
"  c black",
". c #FF9900",
/* pixels */
"......................",
"......................",
"......................",
"......................",
"......................",
"......................",
"......................",
"......................",
"........      ........",
"........      ........",
"........      ........",
"........      ........",
"........      ........",
"........      ........",
"......................",
"......................",
"......................",
"......................",
"......................",
"......................",
"......................",
"......................"
};
