/* XPM */
static char *stick_active[] = {
/* columns rows colors chars-per-pixel */
"22 22 2 1 ",
"  c #0000ff",
". c white",
/* pixels */
"                      ",
"                      ",
"                      ",
"                      ",
"                      ",
"     ....    ....     ",
"     ....    ....     ",
"     ....    ....     ",
"     ....    ....     ",
"                      ",
"                      ",
"                      ",
"                      ",
"     ....    ....     ",
"     ....    ....     ",
"     ....    ....     ",
"     ....    ....     ",
"                      ",
"                      ",
"                      ",
"                      ",
"                      "
};
