/* XPM */
static char *top_left_active[] = {
/* columns rows colors chars-per-pixel */
"10 26 2 1 ",
"  c black",
". c #0000ff",
/* pixels */
"          ",
" .........",
" .........",
" .........",
" .........",
" .........",
" .........",
" .........",
" .........",
" .........",
" .........",
" .........",
" .........",
" .........",
" .........",
" .........",
" .........",
" .........",
" .........",
" .........",
" .........",
" .........",
" .........",
" .........",
" .........",
" ...      "
};
