/* XPM */
static char *maximize_active[] = {
/* columns rows colors chars-per-pixel */
"22 22 2 1 ",
"  c #000000",
". c white",
/* pixels */
"                      ",
"                      ",
"                      ",
"                      ",
"                      ",
"     ............     ",
"     ............     ",
"     ..        ..     ",
"     ..        ..     ",
"     ..        ..     ",
"     ..        ..     ",
"     ..        ..     ",
"     ..        ..     ",
"     ..        ..     ",
"     ..        ..     ",
"     ............     ",
"     ............     ",
"                      ",
"                      ",
"                      ",
"                      ",
"                      "
};
