/* XPM */
static char *top_right_inactive[] = {
/* columns rows colors chars-per-pixel */
"10 26 2 1 ",
"  c black",
". c #999999",
/* pixels */
"          ",
"......... ",
"......... ",
"......... ",
"......... ",
"......... ",
"......... ",
"......... ",
"......... ",
"......... ",
"......... ",
"......... ",
"......... ",
"......... ",
"......... ",
"......... ",
"......... ",
"......... ",
"......... ",
"......... ",
"......... ",
"......... ",
"......... ",
"......... ",
"......... ",
"      ... "
};
