/* XPM */
static char *bottom_right_active[] = {
/* columns rows colors chars-per-pixel */
"10 5 2 1 ",
"  c black",
". c #000080",
/* pixels */
"      ... ",
"......... ",
"......... ",
"......... ",
"          "
};
