/* XPM */
static char *stick_toggled_active[] = {
/* columns rows colors chars-per-pixel */
"20 20 2 1 ",
"  c black",
". c #FFCC00",
/* pixels */
"....................",
"....................",
"....................",
"....................",
"....................",
"....................",
"....................",
".......      .......",
".......      .......",
".......      .......",
".......      .......",
".......      .......",
".......      .......",
"....................",
"....................",
"....................",
"....................",
"....................",
"....................",
"...................."
};
