/* XPM */
static char *stick_inactive[] = {
/* columns rows colors chars-per-pixel */
"22 22 2 1 ",
"  c black",
". c #999999",
/* pixels */
"......................",
"......................",
"......................",
"......................",
"......................",
".....    ....    .....",
".....    ....    .....",
".....    ....    .....",
".....    ....    .....",
"......................",
"......................",
"......................",
"......................",
".....    ....    .....",
".....    ....    .....",
".....    ....    .....",
".....    ....    .....",
"......................",
"......................",
"......................",
"......................",
"......................"
};
