/* XPM */
static char *stick_active[] = {
/* columns rows colors chars-per-pixel */
"22 22 2 1 ",
"  c #000099",
". c white",
/* pixels */
"                      ",
"                      ",
"                      ",
"                      ",
"                      ",
"     ....    ....     ",
"     ....    ....     ",
"     ....    ....     ",
"     ....    ....     ",
"                      ",
"                      ",
"                      ",
"                      ",
"     ....    ....     ",
"     ....    ....     ",
"     ....    ....     ",
"     ....    ....     ",
"                      ",
"                      ",
"                      ",
"                      ",
"                      "
};
