/* XPM */
static char * hide_inactive_xpm[] = {
"22 22 3 1",
" 	c None",
".	c #999999",
"+	c #000000",
"......................",
"......................",
"......................",
"......................",
"......................",
"......................",
"......................",
"......................",
"......................",
"......................",
"......................",
"......................",
"......................",
"......................",
"......................",
".....++++++++++++.....",
".....++++++++++++.....",
"......................",
"......................",
"......................",
"......................",
"......................"};
