/* XPM */
static char * maximize_toggled_prelight_xpm[] = {
"45 30 3 1",
" 	c None",
".	c #00FF00",
"+	c #000000",
".............................................",
".............................................",
".............................................",
".............................................",
".............................................",
".............................................",
".............................................",
".............................................",
".............................................",
"..................+++++++++++................",
"..................+.........+................",
"................+++++++++++.+................",
"................+.........+.+................",
"................+.........+.+................",
"................+.........+.+................",
"................+.........+.+................",
"................+.........+.+................",
"................+.........+.+................",
"................+.........+++................",
"................+.........+..................",
"................+++++++++++..................",
".............................................",
".............................................",
".............................................",
".............................................",
".............................................",
".............................................",
".............................................",
".............................................",
"............................................."};
