/* XPM */
static char * title_1_inactive_xpm[] = {
"1 32 2 1",
" 	c #000000",
".	c #999999",
" ",
".",
".",
".",
".",
".",
".",
".",
".",
".",
".",
".",
".",
".",
".",
".",
".",
".",
".",
".",
".",
".",
".",
".",
".",
".",
".",
".",
".",
".",
".",
" "};
