/* XPM */
static char *hide_prelight[] = {
/* columns rows colors chars-per-pixel */
"20 20 2 1 ",
"  c #00CC00",
". c white",
/* pixels */
"                    ",
"                    ",
"                    ",
"                    ",
"                    ",
"                    ",
"                    ",
"                    ",
"                    ",
"                    ",
"                    ",
"                    ",
"                    ",
"                    ",
"    ............    ",
"    ............    ",
"                    ",
"                    ",
"                    ",
"                    "
};
