/* XPM */
static char * stick_toggled_pressed_xpm[] = {
"20 20 3 1",
" 	c None",
".	c #00CC00",
"+	c #FFFFFF",
"....................",
"....................",
"....................",
"....................",
"....................",
"....................",
"....................",
".......++++++.......",
".......++++++.......",
".......++++++.......",
".......++++++.......",
".......++++++.......",
".......++++++.......",
"....................",
"....................",
"....................",
"....................",
"....................",
"....................",
"...................."};
