/* XPM */
static char *shade_active[] = {
/* columns rows colors chars-per-pixel */
"22 22 2 1 ",
"  c #ff0000",
". c #FFFFFF",
/* pixels */
"                      ",
"                      ",
"                      ",
"                      ",
"                      ",
"          ..          ",
"         ....         ",
"        ......        ",
"       ........       ",
"      ... .. ...      ",
"     ...  ..  ...     ",
"     ..   ..   ..     ",
"          ..          ",
"          ..          ",
"          ..          ",
"          ..          ",
"          ..          ",
"                      ",
"                      ",
"                      ",
"                      ",
"                      "
};
