/* XPM */
static char * menu_inactive_xpm[] = {
"45 30 3 1",
" 	c None",
".	c #999999",
"+	c #000000",
".............................................",
".............................................",
".............................................",
".............................................",
".............................................",
".............................................",
".............................................",
".............................................",
".............................................",
"................+++++++++++..................",
"................+.........+..................",
"................+.+++++++++++................",
"................+.+.........+................",
"................+.+.........+................",
"................+.+.+++++++.+................",
"................+.+.........+................",
"................+.+.+++++++.+................",
"................+.+.........+................",
"................+++.+++++++.+................",
"..................+.........+................",
"..................+++++++++++................",
".............................................",
".............................................",
".............................................",
".............................................",
".............................................",
".............................................",
".............................................",
".............................................",
"............................................."};
