/* XPM */
static char * stick_toggled_inactive_xpm[] = {
"45 30 3 1",
" 	c None",
".	c #FF9900",
"+	c #ffffff",
".............................................",
".............................................",
".............................................",
".............................................",
".............................................",
".............................................",
".............................................",
".............................................",
".............................................",
".............................................",
".............................................",
".................+++++++++++.................",
".................+.........+.................",
".................+.........+.................",
".................+.........+.................",
".................+...+++...+.................",
".................+...+++...+.................",
".................+.........+.................",
".................+.........+.................",
".................+.........+.................",
".................+++++++++++.................",
".............................................",
".............................................",
".............................................",
".............................................",
".............................................",
".............................................",
".............................................",
".............................................",
"............................................."};
