/* XPM */
static char * top_right_active_xpm[] = {
"10 32 2 1",
" 	c #000000",
".	c #ffcc00",
"          ",
"......... ",
"......... ",
"......... ",
"......... ",
"......... ",
"......... ",
"......... ",
"......... ",
"......... ",
"......... ",
"......... ",
"......... ",
"......... ",
"......... ",
"......... ",
"......... ",
"......... ",
"......... ",
"......... ",
"......... ",
"......... ",
"......... ",
"......... ",
"......... ",
"......... ",
"......... ",
"......... ",
"......... ",
"......... ",
"......... ",
"      ... "};
