/* XPM */
static char *top_right_active[] = {
/* columns rows colors chars-per-pixel */
"10 26 2 1 ",
"  c black",
". c #ffcc00",
/* pixels */
"          ",
"......... ",
"......... ",
"......... ",
"......... ",
"......... ",
"......... ",
"......... ",
"......... ",
"......... ",
"......... ",
"......... ",
"......... ",
"......... ",
"......... ",
"......... ",
"......... ",
"......... ",
"......... ",
"......... ",
"......... ",
"......... ",
"......... ",
"......... ",
"......... ",
"      ... "
};
