/* XPM */
static char *hide_active[] = {
/* columns rows colors chars-per-pixel */
"20 20 2 1 ",
"  c #ffffff",
". c white",
/* pixels */
"                    ",
"                    ",
"                    ",
"                    ",
"                    ",
"                    ",
"                    ",
"                    ",
"                    ",
"                    ",
"                    ",
"                    ",
"                    ",
"                    ",
"    ............    ",
"    ............    ",
"                    ",
"                    ",
"                    ",
"                    "
};
