/* XPM */
static char *menu_prelight[] = {
/* columns rows colors chars-per-pixel */
"22 22 2 1 ",
"  c #00CC00",
". c white",
/* pixels */
"                      ",
"                      ",
"                      ",
"                      ",
"                      ",
"                      ",
"     ............     ",
"     ............     ",
"                      ",
"                      ",
"     ............     ",
"     ............     ",
"                      ",
"                      ",
"     ............     ",
"     ............     ",
"                      ",
"                      ",
"                      ",
"                      ",
"                      ",
"                      "
};
