/* XPM */
static char * shade_toggled_prelight_xpm[] = {
"20 20 3 1",
" 	c None",
".	c #00CC00",
"+	c #FFFFFF",
"....................",
"....................",
"....................",
"....................",
".........++.........",
".........++.........",
".........++.........",
".........++.........",
".........++.........",
"....++...++...++....",
"....+++..++..+++....",
".....+++.++.+++.....",
"......++++++++......",
".......++++++.......",
"........++++........",
".........++.........",
"....................",
"....................",
"....................",
"...................."};
