/* XPM */
static char *title_1_inactive[] = {
/* columns rows colors chars-per-pixel */
"1 26 2 1 ",
"  c black",
". c #999999",
/* pixels */
" ",
".",
".",
".",
".",
".",
".",
".",
".",
".",
".",
".",
".",
".",
".",
".",
".",
".",
".",
".",
".",
".",
".",
".",
".",
" "
};
