/* XPM */
static char * top_left_inactive_xpm[] = {
"10 32 2 1",
" 	c #000000",
".	c #999999",
"          ",
" .........",
" .........",
" .........",
" .........",
" .........",
" .........",
" .........",
" .........",
" .........",
" .........",
" .........",
" .........",
" .........",
" .........",
" .........",
" .........",
" .........",
" .........",
" .........",
" .........",
" .........",
" .........",
" .........",
" .........",
" .........",
" .........",
" .........",
" .........",
" .........",
" .........",
" ...      "};
